# xmcd
#
# Track frame offsets:
#	150
#	26420
#	44457
#	66722
#	99382
#	132012
#	158380
#	180435
#	211500
#	238310
#
# Disc length: 3494 seconds
#
# Revision: 1
# Processed by: cddbd v1.5.2PL0 Copyright (c) Steve Scherf et al.
# Submitted via: EZCDAudioConverter 8.0.2.1
#
DISCID=7c0da40a
DTITLE=Various Artist - st. Ngô Thụy Miên
DYEAR=1998
DGENRE=Pop
TTITLE0=Ngọc Huệ - Mùa thu cho em
TTITLE1=Elvis Phương - Paris có gì lạ không em
TTITLE2=Ngọc Bích - Bản tình cuối
TTITLE3=Anh Sơn - Niệm khúc cuối
TTITLE4=Lệ Hằng - Dấu tình sầu
TTITLE5=Elvis Phương - Tình khúc buồn
TTITLE6=Lệ Hằng - Giọt nước mắt ngà
TTITLE7=Anh Sơn - Bản tình ca cho em
TTITLE8=Ngọc Huệ - Giáng ngọc
TTITLE9=Ngọc Bích - Mắt biếc
EXTD=
EXTT0=
EXTT1=
EXTT2=
EXTT3=
EXTT4=
EXTT5=
EXTT6=
EXTT7=
EXTT8=
EXTT9=
PLAYORDER=
